<svg xmlns="http://www.w3.org/2000/svg" xmlns:xlink="http://www.w3.org/1999/xlink" id="Layer_1" x="0" y="0" version="1.1" viewBox="0 0 360 360" style="enable-background:new 0 0 360 360" xml:space="preserve"><style type="text/css">.st0{opacity:.3}.st1{fill:#9a81ea}.st2{opacity:.4}.st3{opacity:.6}.st4{opacity:.8}.st5{fill:#fff}.st6{fill:#91f5ad}.st7,.st8{fill:#cffa12}.st10,.st11,.st12,.st13,.st8,.st9{clip-path:url(#SVGID_2_)}.st9{fill:#d0fa16}.st10{fill:#d1fa1a}.st11{fill:#d1fa1e}.st12{fill:#d2fa22}.st13{fill:#d3fa26}.st14{fill:#d4fb2a}.st14,.st15,.st16,.st17,.st18{clip-path:url(#SVGID_2_)}.st15{fill:#d5fb2e}.st16{fill:#d5fb31}.st17{fill:#d6fb35}.st18{fill:#d7fb39}.st19{fill:#d8fb3c}.st19,.st20,.st21,.st22,.st23{clip-path:url(#SVGID_2_)}.st20{fill:#d8fb40}.st21{fill:#d9fb43}.st22{fill:#dafb47}.st23{fill:#dafb4a}.st24{fill:#dbfb4e}.st24,.st25,.st26,.st27,.st28{clip-path:url(#SVGID_2_)}.st25{fill:#dcfb51}.st26{fill:#dcfb54}.st27{fill:#ddfb57}.st28{fill:#defc5a}.st29{fill:#defc5e}.st29,.st30,.st31,.st32,.st33{clip-path:url(#SVGID_2_)}.st30{fill:#dffc61}.st31{fill:#e0fc64}.st32{fill:#e0fc67}.st33{fill:#e1fc6a}.st34{fill:#e1fc6d}.st34,.st35,.st36,.st37,.st38{clip-path:url(#SVGID_2_)}.st35{fill:#e2fc6f}.st36{fill:#e2fc72}.st37{fill:#e3fc75}.st38{fill:#e4fc78}.st39{fill:#e4fc7a}.st39,.st40,.st41,.st42,.st43{clip-path:url(#SVGID_2_)}.st40{fill:#e5fc7d}.st41{fill:#e5fc80}.st42{fill:#e6fc82}.st43{fill:#e6fc85}.st44{fill:#e7fc87}.st44,.st45,.st46,.st47,.st48{clip-path:url(#SVGID_2_)}.st45{fill:#e7fd8a}.st46{fill:#e8fd8c}.st47{fill:#e8fd8e}.st48{fill:#e9fd91}.st49{fill:#e9fd93}.st49,.st50,.st51,.st52,.st53{clip-path:url(#SVGID_2_)}.st50{fill:#eafd95}.st51{fill:#eafd98}.st52{fill:#eafd9a}.st53{fill:#ebfd9c}.st54{fill:#ebfd9e}.st54,.st55,.st56,.st57,.st58{clip-path:url(#SVGID_2_)}.st55{fill:#ecfda0}.st56{fill:#ecfda2}.st57{fill:#edfda4}.st58{fill:#edfda6}.st59{fill:#edfda8}.st59,.st60,.st61,.st62,.st63{clip-path:url(#SVGID_2_)}.st60{fill:#eefdaa}.st61{fill:#eefdac}.st62{fill:#effdae}.st63{fill:#effdb0}.st64{fill:#effdb1}.st64,.st65,.st66,.st67,.st68{clip-path:url(#SVGID_2_)}.st65{fill:#f0fdb3}.st66{fill:#f0fdb5}.st67{fill:#f0fdb7}.st68{fill:#f1feb8}.st69{fill:#f1feba}.st69,.st70,.st71,.st72,.st73{clip-path:url(#SVGID_2_)}.st70{fill:#f1febc}.st71{fill:#f2febd}.st72{fill:#f2febf}.st73{fill:#f2fec0}.st74{fill:#f3fec2}.st74,.st75,.st76,.st77,.st78{clip-path:url(#SVGID_2_)}.st75{fill:#f3fec3}.st76{fill:#f3fec5}.st77{fill:#f3fec6}.st78{fill:#f4fec7}.st79{fill:#f4fec9}.st79,.st80,.st81,.st82,.st83{clip-path:url(#SVGID_2_)}.st80{fill:#f4feca}.st81{fill:#f5fecb}.st82{fill:#f5fecd}.st83{fill:#f5fece}.st84{fill:#f5fecf}.st84,.st85,.st86,.st87,.st88{clip-path:url(#SVGID_2_)}.st85{fill:#f6fed0}.st86{fill:#f6fed2}.st87{fill:#f6fed3}.st88{fill:#f6fed4}.st89{fill:#f7fed5}.st89,.st90,.st91,.st92,.st93{clip-path:url(#SVGID_2_)}.st90{fill:#f7fed6}.st91{fill:#f7fed7}.st92{fill:#f7fed8}.st93{fill:#f7fed9}.st94{fill:#f8feda}.st94,.st95,.st96,.st97,.st98{clip-path:url(#SVGID_2_)}.st95{fill:#f8fedb}.st96{fill:#f8fedc}.st97{fill:#f8fedd}.st98{fill:#f8fede}.st100,.st101,.st102,.st99{clip-path:url(#SVGID_2_)}.st99{fill:#f9fedf}.st100{fill:#f9fee0}.st101{fill:#f9fee1}.st102{fill:#f9fee2}.st103{fill:#f9fee3}.st103,.st104,.st105,.st106{clip-path:url(#SVGID_2_)}.st104{fill:#fafee4}.st105{fill:#fafee5}.st106{fill:#fafee6}.st107{fill:#fafee7}.st107,.st108,.st109,.st110{clip-path:url(#SVGID_2_)}.st108{fill:#faffe7}.st109{fill:#faffe8}.st110{fill:#faffe9}.st111{fill:#fbffe9}.st111,.st112,.st113,.st114{clip-path:url(#SVGID_2_)}.st112{fill:#fbffea}.st113{fill:#fbffeb}.st114{fill:#fbffec}.st115{fill:#fbffed}.st115,.st116,.st117,.st118{clip-path:url(#SVGID_2_)}.st116{fill:#fcffee}.st117{fill:#fcffef}.st118{fill:#fcfff0}.st119{fill:#fcfff1}.st119,.st120,.st121,.st122{clip-path:url(#SVGID_2_)}.st120{fill:#fcfff2}.st121{fill:#fdfff3}.st122{fill:#fdfff4}.st123{fill:#fdfff5}.st123,.st124,.st125,.st126{clip-path:url(#SVGID_2_)}.st124{fill:#fdfff6}.st125{fill:#fdfff7}.st126{fill:#fdfff8}.st127{fill:#fefff8}.st127,.st128,.st129,.st130{clip-path:url(#SVGID_2_)}.st128{fill:#fefff9}.st129{fill:#fefffa}.st130{fill:#fefffb}.st131{fill:#fefffc}.st131,.st132,.st133,.st134{clip-path:url(#SVGID_2_)}.st132{fill:#fffffd}.st133{fill:#fffffe}.st134{fill:#fff}</style><g><g class="st0"><path d="M180.5,356C83.7,356,5,277.3,5,180.5S83.7,5,180.5,5C277.3,5,356,83.7,356,180.5S277.3,356,180.5,356z M180.5,12.3c-92.7,0-168.2,75.4-168.2,168.2s75.4,168.2,168.2,168.2s168.2-75.4,168.2-168.2S273.2,12.3,180.5,12.3z" class="st1"/></g><g class="st2"><circle cx="192.7" cy="163.6" r="125.4" class="st1"/></g><g class="st3"><circle cx="192.9" cy="162.6" r="114.5" class="st1"/></g><g><g class="st4"><circle cx="236.4" cy="109.6" r="17.7" class="st5"/></g></g><g><g class="st4"><circle cx="179.7" cy="178.6" r="50.6" class="st6"/></g></g><g><g class="st4"><circle cx="263.8" cy="75.6" r="5.9" class="st6"/></g></g><g class="st0"><circle cx="293.8" cy="39" r="32.4" class="st7"/></g><g class="st4"><g><defs><circle id="SVGID_1_" cx="293.6" cy="39.3" r="22.8"/></defs><clipPath id="SVGID_2_"><use xlink:href="#SVGID_1_" style="overflow:visible"/></clipPath><rect width="47.6" height="47.6" x="269.8" y="15.5" class="st8"/><circle cx="293.6" cy="39.3" r="22.8" class="st8"/><circle cx="293.6" cy="39.3" r="22.7" class="st9"/><circle cx="293.6" cy="39.3" r="22.6" class="st10"/><circle cx="293.6" cy="39.3" r="22.5" class="st11"/><circle cx="293.6" cy="39.3" r="22.4" class="st12"/><circle cx="293.6" cy="39.3" r="22.3" class="st13"/><circle cx="293.6" cy="39.3" r="22.2" class="st14"/><circle cx="293.6" cy="39.3" r="22.1" class="st15"/><circle cx="293.6" cy="39.3" r="22" class="st16"/><circle cx="293.6" cy="39.3" r="21.9" class="st17"/><circle cx="293.6" cy="39.3" r="21.8" class="st18"/><circle cx="293.6" cy="39.3" r="21.7" class="st19"/><circle cx="293.6" cy="39.3" r="21.6" class="st20"/><circle cx="293.6" cy="39.3" r="21.5" class="st21"/><circle cx="293.6" cy="39.3" r="21.4" class="st22"/><circle cx="293.6" cy="39.3" r="21.3" class="st23"/><circle cx="293.6" cy="39.3" r="21.2" class="st24"/><circle cx="293.6" cy="39.3" r="21.1" class="st25"/><circle cx="293.6" cy="39.3" r="21" class="st26"/><circle cx="293.6" cy="39.3" r="20.9" class="st27"/><circle cx="293.6" cy="39.3" r="20.8" class="st28"/><circle cx="293.6" cy="39.3" r="20.7" class="st29"/><circle cx="293.6" cy="39.3" r="20.7" class="st30"/><circle cx="293.6" cy="39.3" r="20.6" class="st31"/><circle cx="293.6" cy="39.3" r="20.5" class="st32"/><circle cx="293.6" cy="39.3" r="20.4" class="st33"/><circle cx="293.6" cy="39.3" r="20.3" class="st34"/><circle cx="293.6" cy="39.3" r="20.2" class="st35"/><circle cx="293.6" cy="39.3" r="20.1" class="st36"/><circle cx="293.6" cy="39.3" r="20" class="st37"/><circle cx="293.6" cy="39.3" r="19.9" class="st38"/><circle cx="293.6" cy="39.3" r="19.8" class="st39"/><circle cx="293.6" cy="39.3" r="19.7" class="st40"/><circle cx="293.6" cy="39.3" r="19.6" class="st41"/><circle cx="293.6" cy="39.3" r="19.5" class="st42"/><circle cx="293.6" cy="39.3" r="19.4" class="st43"/><circle cx="293.6" cy="39.3" r="19.3" class="st44"/><circle cx="293.6" cy="39.3" r="19.2" class="st45"/><circle cx="293.6" cy="39.3" r="19.1" class="st46"/><circle cx="293.6" cy="39.3" r="19" class="st47"/><circle cx="293.6" cy="39.3" r="18.9" class="st48"/><circle cx="293.6" cy="39.3" r="18.8" class="st49"/><circle cx="293.6" cy="39.3" r="18.7" class="st50"/><circle cx="293.6" cy="39.3" r="18.6" class="st51"/><circle cx="293.6" cy="39.3" r="18.5" class="st52"/><circle cx="293.6" cy="39.3" r="18.4" class="st53"/><circle cx="293.6" cy="39.3" r="18.3" class="st54"/><circle cx="293.6" cy="39.3" r="18.3" class="st55"/><circle cx="293.6" cy="39.3" r="18.2" class="st56"/><circle cx="293.6" cy="39.3" r="18.1" class="st57"/><circle cx="293.6" cy="39.3" r="18" class="st58"/><circle cx="293.6" cy="39.3" r="17.9" class="st59"/><circle cx="293.6" cy="39.3" r="17.8" class="st60"/><circle cx="293.6" cy="39.3" r="17.7" class="st61"/><circle cx="293.6" cy="39.3" r="17.6" class="st62"/><circle cx="293.6" cy="39.3" r="17.5" class="st63"/><circle cx="293.6" cy="39.3" r="17.4" class="st64"/><circle cx="293.6" cy="39.3" r="17.3" class="st65"/><circle cx="293.6" cy="39.3" r="17.2" class="st66"/><circle cx="293.6" cy="39.3" r="17.1" class="st67"/><circle cx="293.6" cy="39.3" r="17" class="st68"/><circle cx="293.6" cy="39.3" r="16.9" class="st69"/><circle cx="293.6" cy="39.3" r="16.8" class="st70"/><circle cx="293.6" cy="39.3" r="16.7" class="st71"/><circle cx="293.6" cy="39.3" r="16.6" class="st72"/><circle cx="293.6" cy="39.3" r="16.5" class="st73"/><circle cx="293.6" cy="39.3" r="16.4" class="st74"/><circle cx="293.6" cy="39.3" r="16.3" class="st75"/><circle cx="293.6" cy="39.3" r="16.2" class="st76"/><circle cx="293.6" cy="39.3" r="16.1" class="st77"/><circle cx="293.6" cy="39.3" r="16" class="st78"/><circle cx="293.6" cy="39.3" r="15.9" class="st79"/><circle cx="293.6" cy="39.3" r="15.8" class="st80"/><circle cx="293.6" cy="39.3" r="15.8" class="st81"/><circle cx="293.6" cy="39.3" r="15.7" class="st82"/><circle cx="293.6" cy="39.3" r="15.6" class="st83"/><circle cx="293.6" cy="39.3" r="15.5" class="st84"/><circle cx="293.6" cy="39.3" r="15.4" class="st85"/><circle cx="293.6" cy="39.3" r="15.3" class="st86"/><circle cx="293.6" cy="39.3" r="15.2" class="st87"/><circle cx="293.6" cy="39.3" r="15.1" class="st88"/><circle cx="293.6" cy="39.3" r="15" class="st89"/><circle cx="293.6" cy="39.3" r="14.9" class="st90"/><circle cx="293.6" cy="39.3" r="14.8" class="st91"/><circle cx="293.6" cy="39.3" r="14.7" class="st92"/><circle cx="293.6" cy="39.3" r="14.6" class="st93"/><circle cx="293.6" cy="39.3" r="14.5" class="st94"/><circle cx="293.6" cy="39.3" r="14.4" class="st95"/><circle cx="293.6" cy="39.3" r="14.3" class="st96"/><circle cx="293.6" cy="39.3" r="14.2" class="st97"/><circle cx="293.6" cy="39.3" r="14.1" class="st98"/><circle cx="293.6" cy="39.3" r="14" class="st99"/><circle cx="293.6" cy="39.3" r="13.9" class="st100"/><circle cx="293.6" cy="39.3" r="13.8" class="st101"/><circle cx="293.6" cy="39.3" r="13.7" class="st102"/><circle cx="293.6" cy="39.3" r="13.6" class="st103"/><circle cx="293.6" cy="39.3" r="13.5" class="st103"/><circle cx="293.6" cy="39.3" r="13.4" class="st104"/><circle cx="293.6" cy="39.3" r="13.4" class="st105"/><circle cx="293.6" cy="39.3" r="13.3" class="st106"/><circle cx="293.6" cy="39.3" r="13.2" class="st107"/><circle cx="293.6" cy="39.3" r="13.1" class="st108"/><circle cx="293.6" cy="39.3" r="13" class="st109"/><circle cx="293.6" cy="39.3" r="12.9" class="st110"/><circle cx="293.6" cy="39.3" r="12.8" class="st111"/><circle cx="293.6" cy="39.3" r="12.7" class="st112"/><circle cx="293.6" cy="39.3" r="12.6" class="st113"/><circle cx="293.6" cy="39.3" r="12.5" class="st113"/><circle cx="293.6" cy="39.3" r="12.4" class="st114"/><circle cx="293.6" cy="39.3" r="12.3" class="st115"/><circle cx="293.6" cy="39.3" r="12.2" class="st115"/><circle cx="293.6" cy="39.3" r="12.1" class="st116"/><circle cx="293.6" cy="39.3" r="12" class="st116"/><circle cx="293.6" cy="39.3" r="11.9" class="st117"/><circle cx="293.6" cy="39.3" r="11.8" class="st117"/><circle cx="293.6" cy="39.3" r="11.7" class="st118"/><circle cx="293.6" cy="39.3" r="11.6" class="st118"/><circle cx="293.6" cy="39.3" r="11.5" class="st119"/><circle cx="293.6" cy="39.3" r="11.4" class="st119"/><circle cx="293.6" cy="39.3" r="11.3" class="st120"/><circle cx="293.6" cy="39.3" r="11.2" class="st120"/><circle cx="293.6" cy="39.3" r="11.1" class="st121"/><circle cx="293.6" cy="39.3" r="11" class="st121"/><circle cx="293.6" cy="39.3" r="11" class="st122"/><circle cx="293.6" cy="39.3" r="10.9" class="st122"/><circle cx="293.6" cy="39.3" r="10.8" class="st122"/><circle cx="293.6" cy="39.3" r="10.7" class="st123"/><circle cx="293.6" cy="39.3" r="10.6" class="st123"/><circle cx="293.6" cy="39.3" r="10.5" class="st124"/><circle cx="293.6" cy="39.3" r="10.4" class="st124"/><circle cx="293.6" cy="39.3" r="10.3" class="st124"/><circle cx="293.6" cy="39.3" r="10.2" class="st125"/><circle cx="293.6" cy="39.3" r="10.1" class="st125"/><circle cx="293.6" cy="39.3" r="10" class="st125"/><circle cx="293.6" cy="39.3" r="9.9" class="st126"/><circle cx="293.6" cy="39.3" r="9.8" class="st127"/><circle cx="293.6" cy="39.3" r="9.7" class="st127"/><circle cx="293.6" cy="39.3" r="9.6" class="st127"/><circle cx="293.6" cy="39.3" r="9.5" class="st128"/><circle cx="293.6" cy="39.3" r="9.4" class="st128"/><circle cx="293.6" cy="39.3" r="9.3" class="st128"/><circle cx="293.6" cy="39.3" r="9.2" class="st128"/><circle cx="293.6" cy="39.3" r="9.1" class="st129"/><circle cx="293.6" cy="39.3" r="9" class="st129"/><circle cx="293.6" cy="39.3" r="8.9" class="st129"/><circle cx="293.6" cy="39.3" r="8.8" class="st129"/><circle cx="293.6" cy="39.3" r="8.7" class="st130"/><circle cx="293.6" cy="39.3" r="8.6" class="st130"/><circle cx="293.6" cy="39.3" r="8.5" class="st130"/><circle cx="293.6" cy="39.3" r="8.5" class="st130"/><circle cx="293.6" cy="39.3" r="8.4" class="st130"/><circle cx="293.6" cy="39.3" r="8.3" class="st130"/><circle cx="293.6" cy="39.3" r="8.2" class="st131"/><circle cx="293.6" cy="39.3" r="8.1" class="st131"/><circle cx="293.6" cy="39.3" r="8" class="st131"/><circle cx="293.6" cy="39.3" r="7.9" class="st131"/><circle cx="293.6" cy="39.3" r="7.8" class="st131"/><circle cx="293.6" cy="39.3" r="7.7" class="st131"/><circle cx="293.6" cy="39.3" r="7.6" class="st132"/><circle cx="293.6" cy="39.3" r="7.5" class="st132"/><circle cx="293.6" cy="39.3" r="7.4" class="st132"/><circle cx="293.6" cy="39.3" r="7.3" class="st132"/><circle cx="293.6" cy="39.3" r="7.2" class="st132"/><circle cx="293.6" cy="39.3" r="7.1" class="st132"/><circle cx="293.6" cy="39.3" r="7" class="st132"/><circle cx="293.6" cy="39.3" r="6.9" class="st132"/><circle cx="293.6" cy="39.3" r="6.8" class="st132"/><circle cx="293.6" cy="39.3" r="6.7" class="st133"/><circle cx="293.6" cy="39.3" r="6.6" class="st133"/><circle cx="293.6" cy="39.3" r="6.5" class="st133"/><circle cx="293.6" cy="39.3" r="6.4" class="st133"/><circle cx="293.6" cy="39.3" r="6.3" class="st133"/><circle cx="293.6" cy="39.3" r="6.2" class="st133"/><circle cx="293.6" cy="39.3" r="6.1" class="st133"/><circle cx="293.6" cy="39.3" r="6.1" class="st133"/><circle cx="293.6" cy="39.3" r="6" class="st133"/><circle cx="293.6" cy="39.3" r="5.9" class="st133"/><circle cx="293.6" cy="39.3" r="5.8" class="st133"/><circle cx="293.6" cy="39.3" r="5.7" class="st133"/><circle cx="293.6" cy="39.3" r="5.6" class="st133"/><circle cx="293.6" cy="39.3" r="5.5" class="st133"/><circle cx="293.6" cy="39.3" r="5.4" class="st133"/><circle cx="293.6" cy="39.3" r="5.3" class="st133"/><circle cx="293.6" cy="39.3" r="5.2" class="st133"/><circle cx="293.6" cy="39.3" r="5.1" class="st134"/><circle cx="293.6" cy="39.3" r="5" class="st134"/><circle cx="293.6" cy="39.3" r="4.9" class="st134"/><circle cx="293.6" cy="39.3" r="4.8" class="st134"/><circle cx="293.6" cy="39.3" r="4.7" class="st134"/><circle cx="293.6" cy="39.3" r="4.6" class="st134"/><circle cx="293.6" cy="39.3" r="4.5" class="st134"/><circle cx="293.6" cy="39.3" r="4.4" class="st134"/><circle cx="293.6" cy="39.3" r="4.3" class="st134"/><circle cx="293.6" cy="39.3" r="4.2" class="st134"/><circle cx="293.6" cy="39.3" r="4.1" class="st134"/><circle cx="293.6" cy="39.3" r="4" class="st134"/><circle cx="293.6" cy="39.3" r="3.9" class="st134"/><circle cx="293.6" cy="39.3" r="3.8" class="st134"/><circle cx="293.6" cy="39.3" r="3.7" class="st134"/><circle cx="293.6" cy="39.3" r="3.7" class="st134"/><circle cx="293.6" cy="39.3" r="3.6" class="st134"/><circle cx="293.6" cy="39.3" r="3.5" class="st134"/><circle cx="293.6" cy="39.3" r="3.4" class="st134"/><circle cx="293.6" cy="39.3" r="3.3" class="st134"/><circle cx="293.6" cy="39.3" r="3.2" class="st134"/><circle cx="293.6" cy="39.3" r="3.1" class="st134"/><circle cx="293.6" cy="39.3" r="3" class="st134"/><circle cx="293.6" cy="39.3" r="2.9" class="st134"/><circle cx="293.6" cy="39.3" r="2.8" class="st134"/><circle cx="293.6" cy="39.3" r="2.7" class="st134"/><circle cx="293.6" cy="39.3" r="2.6" class="st134"/><circle cx="293.6" cy="39.3" r="2.5" class="st134"/><circle cx="293.6" cy="39.3" r="2.4" class="st134"/><circle cx="293.6" cy="39.3" r="2.3" class="st134"/><circle cx="293.6" cy="39.3" r="2.2" class="st134"/><circle cx="293.6" cy="39.3" r="2.1" class="st134"/><circle cx="293.6" cy="39.3" r="2" class="st134"/><circle cx="293.6" cy="39.3" r="1.9" class="st134"/><circle cx="293.6" cy="39.3" r="1.8" class="st134"/><circle cx="293.6" cy="39.3" r="1.7" class="st134"/><circle cx="293.6" cy="39.3" r="1.6" class="st134"/><circle cx="293.6" cy="39.3" r="1.5" class="st134"/><circle cx="293.6" cy="39.3" r="1.4" class="st134"/><circle cx="293.6" cy="39.3" r="1.3" class="st134"/><circle cx="293.6" cy="39.3" r="1.2" class="st134"/><circle cx="293.6" cy="39.3" r="1.2" class="st134"/><circle cx="293.6" cy="39.3" r="1.1" class="st134"/><circle cx="293.6" cy="39.3" r="1" class="st134"/><circle cx="293.6" cy="39.3" r=".9" class="st134"/><circle cx="293.6" cy="39.3" r=".8" class="st134"/><circle cx="293.6" cy="39.3" r=".7" class="st134"/><circle cx="293.6" cy="39.3" r=".6" class="st134"/><circle cx="293.6" cy="39.3" r=".5" class="st134"/><circle cx="293.6" cy="39.3" r=".4" class="st134"/><circle cx="293.6" cy="39.3" r=".3" class="st134"/><circle cx="293.6" cy="39.3" r=".2" class="st134"/><circle cx="293.6" cy="39.3" r=".1" class="st134"/></g></g><g><path d="M284.3,6.6c0,0,5.3,18.5,11.9,21.1c6,2.4,21.8-11.5,21.8-11.5s-9.4,8-13.6,14c-0.9,1.2-3,3.8-2.5,7.1 c0.5,3,4.4,5.9,7.8,9c7,6.4,12.5,10.9,12.5,10.9S315,52,307,47.8c-5.9-3.1-9.1-5.2-10.5-2c-1,2.4-1,9.5-1,9.5l0.6,33.7 c0,0-2.7-35.6-5.7-42.9c-1-2.6-4.1-4.8-9-5.7c-7.8-1.5-14.9-2.4-14.9-2.4s19.7,0.5,22.6-5.1C291.9,27.4,284.3,6.6,284.3,6.6z" class="st5"/></g><g><circle cx="112.1" cy="261.6" r="32.9" class="st7"/></g></g></svg>